<?xml version="1.0" encoding="utf-8"?>
<!-- Generated by IcoMoon.io -->
<!DOCTYPE svg PUBLIC "-//W3C//DTD SVG 1.1//EN" "http://www.w3.org/Graphics/SVG/1.1/DTD/svg11.dtd">
<svg version="1.1" xmlns="http://www.w3.org/2000/svg" xmlns:xlink="http://www.w3.org/1999/xlink" width="15" height="14" viewBox="0 0 15 14">
<path d="M0.803 3.997c0.534 0.306 1.266 0.55 2.184 0.728s1.922 0.269 3.003 0.269c1.081 0 2.084-0.091 3.003-0.269s1.65-0.422 2.184-0.728c0.534-0.309 0.803-0.641 0.803-1v-1c0-0.359-0.269-0.694-0.803-1s-1.266-0.55-2.184-0.728c-0.919-0.178-1.922-0.269-3.003-0.269-1.084 0-2.084 0.091-3.006 0.269-0.919 0.181-1.65 0.422-2.181 0.728-0.534 0.309-0.803 0.641-0.803 1v1c0 0.359 0.269 0.694 0.803 1z"></path>
<path d="M14.703 12.878l-1.834-1.209c-0.181-0.128-0.366-0.178-0.509-0.159-0.006 0-0.012 0.003-0.019 0.003 0.338-0.509 0.5-1.134 0.422-1.784-0.175-1.453-1.497-2.488-2.95-2.309s-2.488 1.497-2.313 2.95 1.497 2.488 2.95 2.309c0.653-0.078 1.219-0.391 1.631-0.837 0.012 0.15 0.106 0.325 0.281 0.478l1.616 1.488c0.147 0.128 0.328 0.181 0.5 0.159 0.147-0.019 0.288-0.091 0.384-0.216 0.209-0.269 0.141-0.662-0.159-0.872zM10.347 11.803c-0.969 0.119-1.853-0.572-1.969-1.541s0.572-1.853 1.541-1.969 1.853 0.572 1.969 1.541-0.572 1.85-1.541 1.969z"></path>
<path d="M0.803 6.994c0.534 0.306 1.263 0.55 2.184 0.728 0.919 0.178 1.922 0.269 3.003 0.269 0.369 0 0.725-0.009 1.075-0.031 0.581-0.853 1.513-1.459 2.619-1.594 0.694-0.084 1.366 0.028 1.959 0.294 0.225-0.213 0.338-0.431 0.338-0.666v-1.328c-0.622 0.438-1.466 0.766-2.538 0.991-1.072 0.222-2.225 0.334-3.456 0.334s-2.384-0.109-3.456-0.334c-1.072-0.222-1.916-0.553-2.531-0.991v1.328c0 0.359 0.269 0.694 0.803 1z"></path>
<path d="M0.803 9.991c0.534 0.306 1.263 0.55 2.184 0.728 0.919 0.178 1.922 0.269 3.003 0.269 0.184 0 0.369-0.003 0.55-0.009-0.041-0.156-0.072-0.316-0.091-0.481-0.066-0.525-0.016-1.041 0.128-1.519-0.194 0.006-0.391 0.009-0.591 0.009-1.231 0-2.384-0.109-3.456-0.334-1.072-0.222-1.916-0.553-2.531-0.991v1.328c0 0.359 0.269 0.694 0.803 1z"></path>
<path d="M6.953 11.962c-0.316 0.016-0.638 0.025-0.963 0.025-1.231 0-2.384-0.109-3.456-0.334-1.072-0.222-1.916-0.553-2.531-0.991v1.328c0 0.359 0.269 0.694 0.803 1s1.263 0.55 2.184 0.728c0.919 0.178 1.922 0.269 3.003 0.269s2.081-0.091 3.003-0.269c0.094-0.019 0.184-0.038 0.275-0.056-0.972-0.234-1.809-0.85-2.319-1.7z"></path>
</svg>
